<?xml version="1.0" encoding="UTF-8"?>
<svg id="Layer_2" data-name="Layer 2" xmlns="http://www.w3.org/2000/svg" viewBox="0 0 18.89 27.41">
  <g id="Layer_1-2" data-name="Layer 1">
    <g>
      <path d="M10.03,21.82c-1.66,1.72-5.85,5.6-8.29,5.6-1.41,0-1.85-1.23-1.7-2.44.34-2.73,4.07-7.67,5.85-9.88,1.39-1.73,2.58-1.98.3-3.77-.45-.36-2.15-1.58-2.65-1.41-.42.43.12,1.44.33,1.95.27.64,1.04,1.72.96,2.38-.1.89-1.18,1.17-1.83.59-.41-.37-1.77-2.87-2.06-3.49-.52-1.1-1.39-3.05-.66-4.15,1.38-2.07,5.07.69,6.43,1.73.95.72,1.82,1.54,2.7,2.34,1.73-1.48,3.57-3.3,5.66-4.28,1.74-.81,4.03-1,3.8,1.6-.31,3.49-6.33,10.64-8.83,13.23ZM3.38,23.68c.2.59,1.7-.47,2.01-.69,2.97-2.02,8.58-8.49,9.87-11.83.41-1.07.49-1.58-.81-1.02-3.09,1.35-9.7,9.15-10.83,12.34-.11.32-.36.87-.25,1.19Z"/>
      <path d="M10.52,23.46c-.09-.45.34-1.25.79-1.36.85-.22,1.43.6,2.09,1,4.43,2.72.62-2.25.66-3.28.04-.93,1.29-1.35,1.98-.62.53.56,1.68,2.75,2.02,3.53.48,1.08,1.27,2.92.46,3.95-1.37,1.74-4.67-.5-6-1.45-.39-.28-1.93-1.41-2-1.78Z"/>
    </g>
    <polygon points="9.44 0 10.56 3.03 13.59 4.15 10.56 5.27 9.44 8.3 8.32 5.27 5.29 4.15 8.32 3.03 9.44 0"/>
  </g>
</svg>